<?xml version="1.0" encoding="UTF-8"?>
<svg id="Layer_1" data-name="Layer 1" xmlns="http://www.w3.org/2000/svg" version="1.1" viewBox="0 0 100 100">
  <defs>
    <style>
      .cls-1 {
        fill: #000;
      }

      .cls-1, .cls-2 {
        stroke-width: 0px;
      }

      .cls-2 {
        fill: #fff;
      }
    </style>
  </defs>
  <path class="cls-1" d="M-475-472H574.14V572H-475V-472ZM-433.54,62.84c6.27,266.95,228.17,481.12,498.93,473.34,264.98-7.61,476.17-228.66,470.32-496.89-5.77-264.67-227.74-477.24-495.17-472.43-266.46,4.79-479.04,227.2-474.08,495.98Z"/>
  <path class="cls-2" d="M-433.54,62.84c-4.96-268.79,207.62-491.19,474.08-495.98,267.43-4.81,489.4,207.75,495.17,472.43,5.85,268.24-205.34,489.28-470.32,496.89-270.76,7.78-492.66-206.39-498.93-473.34ZM52.53,509.45c251.81.53,457.17-205.22,457.7-458.56.53-252.66-204.21-457.86-457.49-458.5-252.71-.65-458.23,203.97-459.04,457.02-.81,253.73,204.43,459.51,458.83,460.05Z"/>
  <path class="cls-1" d="M52.53,509.45c-254.4-.53-459.64-206.32-458.83-460.05.81-253.05,206.33-457.66,459.04-457.02,253.27.65,458.01,205.84,457.49,458.5-.53,253.33-205.89,459.09-457.7,458.56ZM-18.8-17.97c1.93-7.05,2.79-10.77,3.97-14.38C1.97-84.07,19.22-135.64,35.39-187.54c4.46-14.31,12.69-24.37,25.52-30.36,15.48-7.23,31.95-12.36,47.41-19.64,14.59-6.87,29.37-14.06,42.34-23.48,12.31-8.94,10.44-18.22-3.61-23.49-23.66-8.88-48.14-6.64-73.05-2.73,8.81,6.16,17.63,12.32,27.93,19.51-16.64,7.57-31.14,14.17-48.14,21.9,4.35-21.08,8.17-38.96,11.65-56.92.69-3.55,1.58-8.61-.23-10.84-9.55-11.73-21.19-20.6-37.67-23.34-7.23,30.32-15.81,59.13-20.61,88.56-4.25,26.03-20.24,37.42-42.94,42.92-30.86,7.49-61.26,4.27-91.07-6.01-3.45-1.19-6.96-2.19-11.3-3.55-1.81,15.74,6.14,26.61,13.51,37.38,27.49,40.21,44.61,43.88,86.62,19.13,8.65-5.09,17.26-10.25,28.6-17C-18.31-119.59-26.72-67.15-55.17-20.8c-5.3,8.63-15.35,14.29-22.88,21.64-2.38,2.32-5.29,5.71-5.27,8.6.05,10.62,1.22,21.24,2.06,33.09C-30.19,47.95,12.44,22.24,58.42,7.02c-.71,15.94-1.34,30.25-1.79,40.38-49.42,13.52-96.39,26.36-143.35,39.25-6.96,1.91-14.36,6.54-20.68,5.33-6.39-1.22-11.69-8.13-17.42-12.52-.1.2-.68.9-.87,1.7-6.7,27.94-1.3,55.42,4.16,82.65,1.37,6.81,8.41,9.71,14.77,2.83,9.59-10.39,19-20.94,28.55-31.37,10.76-11.75,11.56-12.12,22.9-.28,16.59,17.31,31.76,36.03,48.91,52.75,27.04,26.36,54.24,30.43,88.06,13.79,5.5-2.7,11.34-9.83,12.28-15.68,2.56-15.94,4.35-32.41,3.19-48.44-1.66-22.87-6.22-45.52-9.65-69.03,1.4-.57,3.25-1.77,5.24-2.07,30.94-4.73,61.55-1.72,91.9,4.61,9.49,1.98,11.75,9.7,6.14,16.51-11.03,13.38-23.47,25.61-35.47,38.17-2.23,2.33-5.17,3.99-10.44,7.96,5.34,0,6.65.3,7.76-.04,38.37-11.67,74.23-28.67,108.01-50.29,7.43-4.75,6.75-9.42,3.14-15.96-14.91-27.02-41.62-40.78-72.65-36.78-33.41,4.3-66.8,8.82-100.13,13.23,0-11.87.52-23.77-.17-35.6-.51-8.74,3.03-12.47,10.92-15.87,25.9-11.19,51.4-23.34,76.86-35.52,4.72-2.26,8.56-6.37,16.31-12.33-13.12-6.92-22.99-13.53-33.82-17.51-18.66-6.86-33.25-17.16-40.69-36.36-1.96-5.06-5.34-9.88-9.06-13.91-11.91-12.9-20.98-12.07-28.62,3.36-4.5,9.08-7.54,19.1-9.84,29.02-3.28,14.16-5.04,28.67-8,42.91-.69,3.32-3.02,8.21-5.58,8.95-24.95,7.21-50.11,13.7-78.08,21.16ZM378.46,335.98c-42.5.09-78.61-10.16-111.89-30.51-2.11-1.29-7.5.05-9.7,2.03-42.1,37.69-92.99,55.14-147.45,63.98-18.34,2.98-37,3.96-55.34,5.83-2.03,66.14,49.28,109.7,111.5,93.52,24.13-6.28,48.66-15.69,69.44-29.18,46.59-30.23,90.97-63.89,136.15-96.28,2.16-1.55,3.43-4.34,7.28-9.39ZM96.03,489.31c-.47-1.38-.54-3.07-1.23-3.38-43.02-19.65-62.72-55.81-71.91-99.93-.77-3.71-6.79-8.5-10.85-9.02-59.6-7.58-114.55-27.26-164.33-61.12-8.35-5.68-16.89-11.07-26.41-17.28-14.54,34.05-18.69,68.04-15.97,102.99.26,3.27,4.47,7.08,7.78,9.13,16,9.89,32.08,19.73,48.58,28.75,72.94,39.86,151.03,55.9,234.34,49.85ZM482.45,73.9c-1.23-.29-2.45-.59-3.68-.88-19.43,26.7-46.39,36.06-77.77,33.38-10.08-.86-12.81,2.55-15.28,11.64-15.48,56.98-44.27,106.5-86.18,148.16-17.1,17-17,20.55,5.32,31.23,8.79,4.21,18.38,7.13,27.92,9.28,12.51,2.82,25.45,3.7,37.95,6.57,8.48,1.95,14.17-.48,18.62-7.24,12.45-18.96,25.91-37.35,36.99-57.08,24.81-44.17,47.23-89.57,55.84-140.17,1.93-11.32.28-23.24.28-34.88ZM-222.35,394.56c.96-.5,1.91-.99,2.87-1.49-9.25-36.98.31-71.31,12.77-105.53,2.05-5.63-.25-13.84-2.83-19.88-2.22-5.2-7.71-8.99-11.75-13.42-30.88-33.83-55.25-71.63-72-114.49-3.5-8.95,1.27-25.22-13.02-25.47-9.31-.16-18.83,8.49-28.15,13.39-2.24,1.17-4.15,3.02-6.08,4.71-18.41,16.05-26.31,36.04-19.54,59.83,4.19,14.72,9.68,29.36,16.73,42.93,28.42,54.71,65.53,103.25,108.03,147.75,4.01,4.19,8.64,7.79,12.98,11.67ZM78.12,264.87c-5.89-.71-8.3-1.1-10.72-1.28-60.47-4.53-121.75-2.73-179.8-25.32-16.04-6.24-32.43-3.5-48.67,3.32-23.46,9.84-24.38,10.92-6.38,28.87,43.98,43.84,101.32,60.2,159.97,78.11,13.18-42.31,51.3-58.5,85.6-83.7ZM24.03,353.45c23.19-2.24,45.28-3.58,67.14-6.65,44.68-6.26,84.85-26.04,125.91-43.18,8.98-3.75,11.72-8.04,8.94-17.31-7.86-26.18-5.18-51.59,6.72-76.15,1.37-2.82,1.93-6.03,3.64-11.59-5.68,4.06-9.3,6.26-12.48,8.97-35.38,30-74.71,52.34-119.51,65.58-16.19,4.78-31.76,13.03-46.2,21.98-20.16,12.48-32.41,30.98-34.16,58.35ZM-379.23,145.88c1.29-.1,2.59-.2,3.88-.3,20.16-34.37,30.01-45.14,53.8-53.5,9.96-3.5,13.77-8.48,12.75-18.52-.69-6.8-.71-13.69-.77-20.54-.36-46.17-.54-92.35-1.19-138.52-.05-3.52-2.35-8.34-5.17-10.28-14.76-10.16-34.25-4.07-40.94,12.45-17.96,44.38-23.98,91.06-24.71,138.41-.47,30.25,1.48,60.53,2.34,90.79ZM400.8,85.24c4.21,0,11.1,1.01,17.61-.17,31.35-5.68,59.64-24.08,56.74-69.52-3.43-53.6-16.85-104.68-37.58-154-1.23-2.92-3.41-5.44-3.51-5.6-9.1,16.08-18.46,32.43-27.56,48.93-1.35,2.45-1.98,5.59-2.05,8.43-1.28,56.36-2.42,112.72-3.65,171.94ZM-306.34-116.67c47.32-133.54,143.22-212.84,270.16-260.39-12.71,3.75-25.38,8.47-38.38,11.94-64.2,17.13-120.2,49.24-169.93,92.73-44.09,38.56-80.56,82.9-102.13,138.14-2.36,6.04-3.77,12.44-5.3,17.57h45.57ZM327.85,58.72c-8.98,48.93-36.56,84.51-59.08,122.67-6.08,10.3-13.22,20.63-16.27,31.92-4.36,16.17-7.17,33.21-7.33,49.91-.13,14.44,4.94,15.75,16.13,6.17,40.2-34.4,69.59-76.36,88.01-126.04,4.62-12.46,5.97-23.2-1.83-35.99-8.27-13.57-12.28-29.74-19.66-48.64ZM-279.22,78.27c-1.25,1.41-2.49,2.81-3.74,4.22,6.01,16.21,10.52,33.19,18.39,48.44,12.54,24.31,27.45,47.4,41.12,71.14,15.98,27.76,15.85,27.76,48.11,22.91,17.85-2.68,35.73-5.12,55.91-8-11.81-9.5-21.49-17.88-31.76-25.44-29.56-21.76-55.74-46.48-75.31-78.06-5.92-9.55-14.72-18.18-24.05-24.5-8.21-5.56-19.01-7.29-28.67-10.72ZM396.75-121.19c.99-.67,2.9-1.61,4.38-3.01,14.96-14.14,18.06-33.83,5.26-55.25-11.14-18.64-24.71-35.98-38.44-52.9-59.46-73.3-134.23-122.63-227.09-143.07-4.24-.93-8.6-1.34-12.91-1.99,3.46,4.5,7.51,6.62,11.69,8.45,44.36,19.42,88.62,38.73,127.04,69.35,42.61,33.96,81.78,70.83,106.69,120.09,9.34,18.48,15.56,38.53,23.39,58.33ZM-76.34-331.19c-88.44,46.13-157.3,110.8-193.66,200.9,11.27,17.39,20.75,32.01,30.35,46.82,10.75-48.59,26.09-97.16,54.21-140.91,28.29-44.01,72.58-71.39,109.09-106.81ZM369.22-88.51c-4.3-88.07-108.34-212.9-188.16-236.59,4.86,5.18,8.07,8.92,11.61,12.32,26.26,25.2,53.08,49.84,78.74,75.63,26.25,26.37,46.72,56.69,59.12,92.26,4.05,11.62,9.58,23.08,16.47,33.24,5.91,8.73,14.71,15.5,22.23,23.14ZM361.35,97.02c2.66-5.01,3.94-6.7,4.52-8.6,14.88-48.71,14.01-98.69,11.7-148.75-.11-2.44-2.05-5.82-4.14-6.97-11.87-6.57-24.05-12.59-36.1-18.78,0,0-.42,2.37-.28,4.71,1.99,32.43,3.46,64.9,6.31,97.25,1.91,21.65,5.47,43.18,9.11,64.63.86,5.05,5,9.54,8.87,16.51ZM-228.05,79.21c-2.06-5.87-4.1-11.75-6.17-17.62-10.51-29.77-23-58.85-24.96-91.13-.98-16.11-4.1-32.24-7.93-47.95-2.04-8.36-7.66-15.86-11.66-23.74-1.18.5-2.36,1-3.54,1.5-4.1,51.31-10.1,102.55-5.52,155.56,25.06-4.41,40.54,10.64,59.78,23.39Z"/>
  <path class="cls-2" d="M-18.8-17.97c27.97-7.46,53.13-13.95,78.08-21.16,2.56-.74,4.89-5.62,5.58-8.95,2.96-14.24,4.72-28.75,8-42.91,2.3-9.92,5.34-19.94,9.84-29.02,7.65-15.43,16.71-16.25,28.62-3.36,3.71,4.02,7.09,8.84,9.06,13.91,7.44,19.2,22.02,29.5,40.69,36.36,10.83,3.98,20.7,10.59,33.82,17.51-7.76,5.96-11.59,10.07-16.31,12.33-25.46,12.18-50.96,24.34-76.86,35.52-7.89,3.41-11.43,7.13-10.92,15.87.69,11.83.17,23.73.17,35.6,33.33-4.41,66.72-8.93,100.13-13.23,31.02-4,57.73,9.76,72.65,36.78,3.61,6.55,4.29,11.21-3.14,15.96-33.78,21.62-69.64,38.62-108.01,50.29-1.11.34-2.41.04-7.76.04,5.27-3.97,8.21-5.62,10.44-7.96,12-12.56,24.44-24.79,35.47-38.17,5.62-6.81,3.35-14.53-6.14-16.51-30.35-6.33-60.96-9.35-91.9-4.61-1.99.3-3.84,1.5-5.24,2.07,3.43,23.5,7.99,46.16,9.65,69.03,1.16,16.03-.63,32.5-3.19,48.44-.94,5.85-6.78,12.97-12.28,15.68-33.82,16.63-61.02,12.57-88.06-13.79-17.15-16.71-32.32-35.43-48.91-52.75-11.34-11.83-12.14-11.47-22.9.28-9.55,10.42-18.96,20.98-28.55,31.37-6.35,6.88-13.4,3.98-14.77-2.83-5.46-27.24-10.86-54.72-4.16-82.65.19-.8.77-1.5.87-1.7,5.73,4.38,11.03,11.29,17.42,12.52,6.32,1.21,13.71-3.42,20.68-5.33C-39.76,73.77,7.21,60.93,56.63,47.4c.45-10.13,1.08-24.44,1.79-40.38C12.44,22.24-30.19,47.95-81.27,42.53c-.84-11.84-2.01-22.46-2.06-33.09-.01-2.89,2.89-6.28,5.27-8.6,7.54-7.35,17.58-13.01,22.88-21.64C-26.72-67.15-18.31-119.59-9.66-175.49c-11.35,6.75-19.96,11.91-28.6,17-42.01,24.75-59.13,21.08-86.62-19.13-7.36-10.77-15.32-21.64-13.51-37.38,4.34,1.36,7.85,2.36,11.3,3.55,29.82,10.28,60.21,13.49,91.07,6.01,22.7-5.51,38.69-16.89,42.94-42.92,4.8-29.43,13.38-58.24,20.61-88.56,16.48,2.73,28.12,11.61,37.67,23.34,1.82,2.23.92,7.29.23,10.84-3.47,17.96-7.29,35.85-11.65,56.92,17-7.73,31.5-14.33,48.14-21.9-10.3-7.2-19.11-13.35-27.93-19.51,24.91-3.91,49.39-6.15,73.05,2.73,14.05,5.28,15.92,14.55,3.61,23.49-12.97,9.42-27.74,16.61-42.34,23.48-15.46,7.28-31.93,12.41-47.41,19.64-12.82,5.99-21.06,16.05-25.52,30.36C19.22-135.64,1.97-84.07-14.83-32.36c-1.17,3.61-2.03,7.33-3.97,14.38ZM-58.1,118.94c.04,1.31.07,2.62.11,3.94,18.1,6.11,35.96,13.08,54.35,18.14,37.84,10.43,47.21,4.93,56.44-32.99,2.47-10.16,1.75-21.1,2.49-31.68-1.45-.68-2.9-1.36-4.35-2.05-34.65,19.07-75.54,22.68-109.04,44.63ZM105.93-87.26c-1.08.48-2.16.96-3.23,1.44-.96,11.26-1.93,22.51-3.08,35.88,10.33-2.11,18.98-3.88,30.5-6.23-9.39-12.06-16.79-21.57-24.19-31.09Z"/>
  <path class="cls-2" d="M378.46,335.98c-3.85,5.05-5.12,7.84-7.28,9.39-45.18,32.39-89.56,66.04-136.15,96.28-20.78,13.49-45.32,22.9-69.44,29.18-62.22,16.19-113.53-27.38-111.5-93.52,18.34-1.87,37-2.85,55.34-5.83,54.46-8.84,105.35-26.29,147.45-63.98,2.2-1.97,7.59-3.32,9.7-2.03,33.28,20.35,69.39,30.6,111.89,30.51Z"/>
  <path class="cls-2" d="M96.03,489.31c-83.31,6.05-161.4-9.99-234.34-49.85-16.51-9.02-32.58-18.86-48.58-28.75-3.31-2.05-7.53-5.86-7.78-9.13-2.72-34.95,1.43-68.94,15.97-102.99,9.51,6.22,18.06,11.6,26.41,17.28,49.77,33.85,104.73,53.54,164.33,61.12,4.06.52,10.08,5.31,10.85,9.02,9.19,44.12,28.89,80.28,71.91,99.93.69.32.76,2.01,1.23,3.38Z"/>
  <path class="cls-2" d="M482.45,73.9c0,11.64,1.64,23.57-.28,34.88-8.61,50.6-31.03,95.99-55.84,140.17-11.08,19.73-24.54,38.13-36.99,57.08-4.44,6.77-10.13,9.19-18.62,7.24-12.49-2.87-25.44-3.75-37.95-6.57-9.53-2.15-19.13-5.07-27.92-9.28-22.32-10.69-22.42-14.23-5.32-31.23,41.91-41.66,70.7-91.18,86.18-148.16,2.47-9.09,5.2-12.51,15.28-11.64,31.38,2.68,58.34-6.68,77.77-33.38,1.23.29,2.45.59,3.68.88Z"/>
  <path class="cls-2" d="M-222.35,394.56c-4.34-3.88-8.97-7.48-12.98-11.67-42.5-44.49-79.6-93.03-108.03-147.75-7.05-13.57-12.54-28.21-16.73-42.93-6.77-23.79,1.13-43.78,19.54-59.83,1.93-1.69,3.84-3.53,6.08-4.71,9.32-4.9,18.84-13.55,28.15-13.39,14.29.25,9.53,16.52,13.02,25.47,16.75,42.86,41.12,80.65,72,114.49,4.04,4.42,9.53,8.22,11.75,13.42,2.58,6.04,4.88,14.24,2.83,19.88-12.46,34.22-22.02,68.55-12.77,105.53-.96.5-1.91.99-2.87,1.49Z"/>
  <path class="cls-2" d="M78.12,264.87c-34.3,25.2-72.43,41.4-85.6,83.7-58.65-17.91-116-34.27-159.97-78.11-18-17.95-17.08-19.02,6.38-28.87,16.25-6.82,32.63-9.56,48.67-3.32,58.06,22.59,119.33,20.79,179.8,25.32,2.43.18,4.84.57,10.72,1.28Z"/>
  <path class="cls-2" d="M24.03,353.45c1.75-27.37,14-45.86,34.16-58.35,14.44-8.94,30.02-17.19,46.2-21.98,44.8-13.24,84.13-35.58,119.51-65.58,3.19-2.7,6.8-4.91,12.48-8.97-1.72,5.56-2.28,8.77-3.64,11.59-11.9,24.55-14.58,49.97-6.72,76.15,2.78,9.26.04,13.56-8.94,17.31-41.06,17.15-81.23,36.92-125.91,43.18-21.86,3.06-43.96,4.41-67.14,6.65Z"/>
  <path class="cls-2" d="M-379.23,145.88c-.86-30.27-2.81-60.55-2.34-90.79.73-47.35,6.75-94.03,24.71-138.41,6.69-16.53,26.18-22.61,40.94-12.45,2.82,1.94,5.12,6.76,5.17,10.28.65,46.17.83,92.34,1.19,138.52.05,6.85.08,13.74.77,20.54,1.02,10.04-2.79,15.02-12.75,18.52-23.8,8.36-33.64,19.13-53.8,53.5-1.29.1-2.59.2-3.88.3Z"/>
  <path class="cls-2" d="M400.8,85.24c1.23-59.22,2.38-115.58,3.65-171.94.06-2.84.7-5.97,2.05-8.43,9.1-16.5,18.46-32.85,27.56-48.93.1.16,2.28,2.68,3.51,5.6,20.72,49.33,34.15,100.41,37.58,154,2.9,45.44-25.39,63.85-56.74,69.52-6.5,1.18-13.4.17-17.61.17Z"/>
  <path class="cls-2" d="M-306.34-116.67h-45.57c1.52-5.13,2.94-11.53,5.3-17.57,21.58-55.24,58.04-99.58,102.13-138.14,49.73-43.49,105.73-75.6,169.93-92.73,13-3.47,25.66-8.19,38.38-11.94-126.95,47.55-222.84,126.85-270.16,260.39Z"/>
  <path class="cls-2" d="M327.85,58.72c7.38,18.9,11.39,35.07,19.66,48.64,7.8,12.8,6.45,23.54,1.83,35.99-18.43,49.68-47.81,91.64-88.01,126.04-11.19,9.58-16.27,8.28-16.13-6.17.15-16.7,2.97-33.74,7.33-49.91,3.04-11.29,10.19-21.62,16.27-31.92,22.52-38.16,50.1-73.74,59.08-122.67Z"/>
  <path class="cls-2" d="M-279.22,78.27c9.66,3.42,20.46,5.16,28.67,10.72,9.33,6.32,18.13,14.95,24.05,24.5,19.58,31.58,45.75,56.3,75.31,78.06,10.27,7.56,19.95,15.94,31.76,25.44-20.18,2.88-38.06,5.31-55.91,8-32.25,4.85-32.13,4.85-48.11-22.91-13.67-23.74-28.58-46.83-41.12-71.14-7.87-15.25-12.37-32.23-18.39-48.44,1.25-1.41,2.49-2.81,3.74-4.22Z"/>
  <path class="cls-2" d="M396.75-121.19c-7.82-19.8-14.04-39.85-23.39-58.33-24.91-49.26-64.08-86.14-106.69-120.09-38.42-30.62-82.68-49.93-127.04-69.35-4.18-1.83-8.23-3.96-11.69-8.45,4.31.65,8.67,1.06,12.91,1.99,92.86,20.43,167.63,69.77,227.09,143.07,13.73,16.92,27.3,34.26,38.44,52.9,12.8,21.42,9.7,41.11-5.26,55.25-1.48,1.4-3.39,2.34-4.38,3.01Z"/>
  <path class="cls-2" d="M-76.34-331.19c-36.52,35.42-80.8,62.8-109.09,106.81-28.12,43.75-43.46,92.32-54.21,140.91-9.6-14.81-19.08-29.43-30.35-46.82,36.35-90.1,105.21-154.77,193.66-200.9Z"/>
  <path class="cls-2" d="M369.22-88.51c-7.52-7.64-16.32-14.41-22.23-23.14-6.88-10.16-12.42-21.62-16.47-33.24-12.39-35.57-32.87-65.89-59.12-92.26-25.67-25.79-52.49-50.43-78.74-75.63-3.54-3.4-6.75-7.14-11.61-12.32,79.82,23.7,183.87,148.52,188.16,236.59Z"/>
  <path class="cls-2" d="M361.35,97.02c-3.87-6.98-8.01-11.47-8.87-16.51-3.64-21.45-7.2-42.98-9.11-64.63-2.86-32.35-4.32-64.82-6.31-97.25-.14-2.34.28-4.71.28-4.71,12.05,6.19,24.22,12.22,36.1,18.78,2.08,1.15,4.02,4.53,4.14,6.97,2.31,50.06,3.18,100.04-11.7,148.75-.58,1.9-1.86,3.6-4.52,8.6Z"/>
  <path class="cls-2" d="M-228.05,79.21c-19.24-12.75-34.72-27.81-59.78-23.39-4.58-53.01,1.42-104.25,5.52-155.56,1.18-.5,2.36-1,3.54-1.5,4,7.89,9.62,15.38,11.66,23.74,3.83,15.71,6.95,31.84,7.93,47.95,1.96,32.28,14.45,61.37,24.96,91.13,2.07,5.87,4.12,11.75,6.17,17.62Z"/>
  <path class="cls-1" d="M-58.1,118.94c33.49-21.95,74.38-25.56,109.04-44.63,1.45.68,2.9,1.36,4.35,2.05-.74,10.58-.02,21.52-2.49,31.68-9.22,37.92-18.6,43.41-56.44,32.99-18.39-5.07-36.25-12.04-54.35-18.14-.04-1.31-.07-2.62-.11-3.94Z"/>
  <path class="cls-1" d="M105.93-87.26c7.4,9.51,14.81,19.03,24.19,31.09-11.52,2.35-20.17,4.12-30.5,6.23,1.15-13.37,2.11-24.62,3.08-35.88,1.08-.48,2.16-.96,3.23-1.44Z"/>
</svg>